<svg width="24" height="24" viewBox="0 0 24 24" fill="none" xmlns="http://www.w3.org/2000/svg">
<g clip-path="url(#clip0_20_13310)">
<path d="M24 12C24 5.37258 18.6274 0 12 0C5.37258 0 0 5.37258 0 12C0 18.6274 5.37258 24 12 24C18.6274 24 24 18.6274 24 12Z" fill="#87929C" fill-opacity="0.1"/>
<path fill-rule="evenodd" clip-rule="evenodd" d="M7.79289 7.79289C8.15338 7.43241 8.72061 7.40468 9.1129 7.7097L9.20711 7.79289L12 10.585L14.7929 7.79289C15.1834 7.40237 15.8166 7.40237 16.2071 7.79289C16.5676 8.15338 16.5953 8.72061 16.2903 9.1129L16.2071 9.20711L13.415 12L16.2071 14.7929L16.2903 14.8871C16.5953 15.2794 16.5676 15.8466 16.2071 16.2071C15.8466 16.5676 15.2794 16.5953 14.8871 16.2903L14.7929 16.2071L12 13.415L9.20711 16.2071C8.81658 16.5976 8.18342 16.5976 7.79289 16.2071C7.43241 15.8466 7.40468 15.2794 7.7097 14.8871L7.79289 14.7929L10.585 12L7.79289 9.20711L7.7097 9.1129C7.40468 8.72061 7.43241 8.15338 7.79289 7.79289Z" fill="#060B11" fill-opacity="0.48"/>
</g>
<defs>
<clipPath id="clip0_20_13310">
<rect width="24" height="24" fill="white"/>
</clipPath>
</defs>
</svg>