<svg width="20" height="20" viewBox="0 0 20 20" fill="none" xmlns="http://www.w3.org/2000/svg">
<path fill-rule="evenodd" clip-rule="evenodd" d="M10.0031 20C15.5259 20 20.0031 15.5228 20.0031 10C20.0031 4.47715 15.5259 0 10.0031 0C4.4802 0 0.00305176 4.47715 0.00305176 10C0.00305176 15.5228 4.4802 20 10.0031 20ZM7.03338 5.96967L6.94926 5.89705L6.84721 5.8334C6.56491 5.68756 6.2094 5.73299 5.97272 5.96967C5.67983 6.26256 5.67983 6.73744 5.97272 7.03033L8.94205 10L5.97272 12.9697L5.9001 13.0538C5.68225 13.3474 5.70645 13.7641 5.97272 14.0303C6.26561 14.3232 6.74049 14.3232 7.03338 14.0303L10.0031 11.06L12.9728 14.0303L13.0569 14.1029C13.3505 14.3208 13.7672 14.2966 14.0334 14.0303C14.3263 13.7374 14.3263 13.2626 14.0334 12.9697L11.0631 10L14.0334 7.03033L14.106 6.94621C14.3239 6.6526 14.2997 6.23594 14.0334 5.96967C13.7405 5.67678 13.2657 5.67678 12.9728 5.96967L10.0031 8.939L7.03338 5.96967Z" fill="#060B11" fill-opacity="0.24"/>
</svg>
