<svg xmlns="http://www.w3.org/2000/svg" shape-rendering="geometricPrecision" text-rendering="geometricPrecision" image-rendering="optimizeQuality" fill-rule="evenodd" clip-rule="evenodd" viewBox="0 0 512 371.158"><path d="M288.93 83.263l-19.642 34.025c45.723 58.889 51.554 117.885 17.531 176.81-21.216 36.779-52.306 60.571-93.272 71.484-40.856 10.947-79.711 5.76-116.418-15.421-36.6-21.108-60.428-52.091-71.411-92.984-11.056-40.929-6.083-79.569 14.955-115.99 33.165-57.459 87.261-82.003 162.178-73.738l19.642-34.024c10.913.465 23.078 3.291 36.564 8.337l3.006-5.224c9.911-17.173 23.865-28.514 41.859-33.774 18.032-5.331 34.776-2.755 51.341 6.045 65.151 34.561 9.41 100.606 59.533 134.022a26.214 26.214 0 003.604 1.981c13.17-15.673 32.14-29.388 47.296-36.01-1.347 6.365-3.527 12.613-6.799 18.705 8.746-8.135 18.349-14.412 28.75-18.967-2.836 7.799-6.788 14.873-12.374 20.882 12.186-6.06 27.392-11.725 40.546-13.192-6.687 11.577-17.535 22.904-28.094 29.886 7.518-2.652 15.093-3.983 22.717-4.247-4.636 4.271-12.388 9.237-18.164 11.637 13.758-1.953 26.965-1.295 39.722 1.476-12.995 6.613-26.909 10.16-41.623 11.044 6.255 1.644 16.258 4.604 21.518 8.113-6.131 1.79-16.689 1.85-23.44 1.029 10.511 3.849 19.799 9.537 27.587 17.475-19.067 2.008-35.444.656-49.052-4.158l8.836 13.729c-17.904-3.355-37.044-15.885-53.565-26.45-7.903-1.604-15.738-4.669-23.493-9.141-59.069-34.096-12.701-100.534-58.782-132.447-20.608-14.275-40.142-5.868-56.135 21.859 9.551 8.697 17.887 17.748 25.079 27.228zm-143.999 69.531h21.294l-.502 9.779c8.942.559 16.766 1.453 23.474 2.682l-4.863 25.99h-25.152c-3.911 0-6.511.615-7.796 1.844-1.285 1.23-1.984 3.577-2.096 7.042l10.563 1.175c12.856 1.452 21.714 4.75 26.576 9.892 4.863 5.142 7.295 11.793 7.295 19.953s-.839 14.671-2.515 19.533c-1.677 4.864-4.081 8.58-7.21 11.151-5.7 4.36-13.191 6.874-22.469 7.545l-.503 12.894h-21.629l.67-12.894c-10.619-.782-19.617-2.123-26.995-4.024l4.862-26.659c9.278 2.458 19.003 3.689 29.175 3.689 4.248 0 8.217-.226 11.905-.672v-7.042l-10.396-1.173c-13.413-1.342-22.355-5.254-26.826-11.738-3.914-5.7-5.871-13.134-5.871-22.3 0-12.074 2.488-20.847 7.462-26.325 4.975-5.477 11.99-8.83 21.043-10.06l.504-10.282zm8.467-58.79c34.11 0 64.993 13.828 87.347 36.182 22.355 22.354 36.183 53.238 36.183 87.348s-13.828 64.992-36.183 87.347c-22.354 22.354-53.237 36.182-87.347 36.182-34.11 0-64.993-13.828-87.347-36.182-22.354-22.355-36.182-53.237-36.182-87.347 0-34.11 13.828-64.994 36.182-87.348 22.354-22.354 53.237-36.182 87.347-36.182zm77.23 46.299c-19.763-19.763-47.069-31.988-77.23-31.988s-57.467 12.225-77.23 31.988c-19.763 19.763-31.988 47.07-31.988 77.231 0 30.16 12.225 57.466 31.988 77.23 19.763 19.763 47.069 31.988 77.23 31.988s57.467-12.225 77.23-31.988c19.764-19.764 31.989-47.07 31.989-77.23 0-30.161-12.225-57.468-31.989-77.231zm176.287 7.248c5.166 1.146 11.219 1.783 18.041 2.078 11.971.766 16.635 24.997-4.692 27.345l12.429 3.054 18.703-1.14-14.642-9.225 12.496-5.038-7.734-.526 6.898-6.247-8.683 1.22 10.068-13.127-18.984 4.866 5.021-10.507-22.705 6.656-6.216.591z"/></svg>