<svg width="40" height="40" viewBox="0 0 40 40" fill="none" xmlns="http://www.w3.org/2000/svg">
<mask id="mask0_26_119" style="mask-type:alpha" maskUnits="userSpaceOnUse" x="0" y="0" width="40" height="40">
<path fill-rule="evenodd" clip-rule="evenodd" d="M20 40C5.27786 40 0 34.7225 0 20C0 5.83321 5.27786 0 20 0C34.7225 0 40 5.27786 40 20C40 34.7225 34.7225 40 20 40Z" fill="white"/>
</mask>
<g mask="url(#mask0_26_119)">
<path d="M40 0H0V40H40V0Z" fill="#B2BAC2"/>
<path fill-rule="evenodd" clip-rule="evenodd" d="M10.4762 19.5238C10.4762 24.2495 14.3219 28.0952 19.0476 28.0952C19.4419 28.0952 19.7619 28.4152 19.7619 28.8095C19.7619 29.2038 19.4419 29.5238 19.0476 29.5238C13.5333 29.5238 9.04761 25.0381 9.04761 19.5238C9.04761 14.0095 13.5333 9.5238 19.0476 9.5238C24.2286 9.5238 28.6076 13.5657 29.0162 18.7248C29.0476 19.1181 28.7533 19.4619 28.36 19.4933C27.9676 19.5219 27.6229 19.2305 27.5924 18.8371C27.2419 14.4162 23.4886 10.9524 19.0476 10.9524C14.3219 10.9524 10.4762 14.7981 10.4762 19.5238ZM30.0179 23.2143H26.0714H22.125C21.7406 23.2143 21.4286 23.5343 21.4286 23.9285C21.4286 24.3228 21.7406 24.6428 22.125 24.6428H26.0714H30.0179C30.4023 24.6428 30.7143 24.3228 30.7143 23.9285C30.7143 23.5343 30.4023 23.2143 30.0179 23.2143Z" fill="white"/>
</g>
</svg>
