<svg width="40" height="40" viewBox="0 0 40 40" fill="none" xmlns="http://www.w3.org/2000/svg">
<mask id="mask0_26_87" style="mask-type:alpha" maskUnits="userSpaceOnUse" x="0" y="0" width="40" height="40">
<path fill-rule="evenodd" clip-rule="evenodd" d="M20 40C5.27786 40 0 34.7225 0 20C0 5.83321 5.27786 0 20 0C34.7225 0 40 5.27786 40 20C40 34.7225 34.7225 40 20 40Z" fill="white"/>
</mask>
<g mask="url(#mask0_26_87)">
<path d="M40 0H0V40H40V0Z" fill="#FEBD00"/>
<path fill-rule="evenodd" clip-rule="evenodd" d="M10.4762 19.5238C10.4762 24.2495 14.3219 28.0952 19.0476 28.0952C19.4419 28.0952 19.7619 28.4152 19.7619 28.8095C19.7619 29.2038 19.4419 29.5238 19.0476 29.5238C13.5333 29.5238 9.04761 25.0381 9.04761 19.5238C9.04761 14.0095 13.5333 9.5238 19.0476 9.5238C24.2286 9.5238 28.6076 13.5657 29.0162 18.7248C29.0476 19.1181 28.7533 19.4619 28.36 19.4933C27.9676 19.5219 27.6229 19.2305 27.5924 18.8371C27.2419 14.4162 23.4886 10.9524 19.0476 10.9524C14.3219 10.9524 10.4762 14.7981 10.4762 19.5238ZM26.4276 25H29.7609C30.1552 25 30.4752 25.32 30.4752 25.7143C30.4752 26.1086 30.1552 26.4286 29.7609 26.4286H26.4276V29.7619C26.4276 30.1562 26.1076 30.4762 25.7133 30.4762C25.319 30.4762 24.999 30.1562 24.999 29.7619V26.4286H21.6657C21.2714 26.4286 20.9514 26.1086 20.9514 25.7143C20.9514 25.32 21.2714 25 21.6657 25H24.999V21.6667C24.999 21.2724 25.319 20.9524 25.7133 20.9524C26.1076 20.9524 26.4276 21.2724 26.4276 21.6667V25Z" fill="white"/>
</g>
</svg>
