<svg width="17" height="17" viewBox="0 0 17 17" fill="none" xmlns="http://www.w3.org/2000/svg">
<path fill-rule="evenodd" clip-rule="evenodd" d="M15.591 0.53033C15.8595 0.798816 15.8819 1.22022 15.6581 1.51419L15.591 1.59099L1.591 15.591C1.29811 15.8839 0.823232 15.8839 0.530339 15.591C0.261853 15.3225 0.23948 14.9011 0.463218 14.6071L0.530339 14.5303L14.5303 0.53033C14.8232 0.237437 15.2981 0.237437 15.591 0.53033Z" fill="#060B11"/>
<path fill-rule="evenodd" clip-rule="evenodd" d="M15.591 14.5303C15.8839 14.8232 15.8839 15.2981 15.591 15.591C15.3225 15.8595 14.9011 15.8818 14.6071 15.6581L14.5303 15.591L0.530339 1.59099C0.237446 1.2981 0.237446 0.823223 0.530339 0.53033C0.798824 0.261845 1.22022 0.239471 1.5142 0.463209L1.591 0.53033L15.591 14.5303Z" fill="#060B11"/>
</svg>
