<svg width="21" height="17" viewBox="0 0 21 17" fill="none" xmlns="http://www.w3.org/2000/svg">
<path d="M19.4836 7.53552C19.8979 7.53552 20.2336 7.87131 20.2336 8.28552C20.2336 8.66522 19.9515 8.97901 19.5854 9.02868L19.4836 9.03552H0.75C0.335786 9.03552 0 8.69974 0 8.28552C0 7.90583 0.282154 7.59203 0.648229 7.54237L0.75 7.53552H19.4836Z" fill="#060B11"/>
<path d="M9.058 0.227827C9.32017 0.498127 9.33801 0.915112 9.1157 1.20536L9.04181 1.28836L1.82702 8.28477L9.04181 15.2827C9.33914 15.5711 9.34639 16.0459 9.058 16.3432C8.79583 16.6135 8.37958 16.6441 8.08268 16.4308L7.99746 16.3594L0.228287 8.8239L0.212096 8.80771C0.177615 8.77216 0.14736 8.73407 0.121323 8.69407L0.0701063 8.60164L0.0465127 8.5448L0.0218524 8.46381L0.00252844 8.34131L0.000976562 8.25748L0.0058284 8.19575L0.0268429 8.08791L0.0456237 8.02866L0.0867558 7.93583L0.132344 7.86054L0.198893 7.77732L7.99746 0.211637C8.29479 -0.0767511 8.76961 -0.0695025 9.058 0.227827Z" fill="#060B11"/>
</svg>
